<?xml version="1.0" standalone="no"?>
<svg xmlns:xlink="http://www.w3.org/1999/xlink" id="wave" style="transform:rotate(0deg); transition: 0.3s" viewBox="0 0 1440 310" version="1.1" xmlns="http://www.w3.org/2000/svg"><defs><linearGradient id="sw-gradient-0" x1="0" x2="0" y1="1" y2="0"><stop stop-color="rgba(255, 255, 255)" offset="0%"/><stop stop-color="rgba(255, 255, 255)" offset="100%"/></linearGradient></defs><path style="transform:translate(0, 0px); opacity:1" fill="url(#sw-gradient-0)" d="M0,186L48,160.2C96,134,192,83,288,93C384,103,480,176,576,217C672,258,768,269,864,248C960,227,1056,176,1152,175.7C1248,176,1344,227,1440,242.8C1536,258,1632,238,1728,201.5C1824,165,1920,114,2016,108.5C2112,103,2208,145,2304,149.8C2400,155,2496,124,2592,98.2C2688,72,2784,52,2880,36.2C2976,21,3072,10,3168,20.7C3264,31,3360,62,3456,62C3552,62,3648,31,3744,56.8C3840,83,3936,165,4032,206.7C4128,248,4224,248,4320,232.5C4416,217,4512,186,4608,170.5C4704,155,4800,155,4896,155C4992,155,5088,155,5184,160.2C5280,165,5376,176,5472,160.2C5568,145,5664,103,5760,118.8C5856,134,5952,207,6048,222.2C6144,238,6240,196,6336,180.8C6432,165,6528,176,6624,170.5C6720,165,6816,145,6864,134.3L6912,124L6912,310L6864,310C6816,310,6720,310,6624,310C6528,310,6432,310,6336,310C6240,310,6144,310,6048,310C5952,310,5856,310,5760,310C5664,310,5568,310,5472,310C5376,310,5280,310,5184,310C5088,310,4992,310,4896,310C4800,310,4704,310,4608,310C4512,310,4416,310,4320,310C4224,310,4128,310,4032,310C3936,310,3840,310,3744,310C3648,310,3552,310,3456,310C3360,310,3264,310,3168,310C3072,310,2976,310,2880,310C2784,310,2688,310,2592,310C2496,310,2400,310,2304,310C2208,310,2112,310,2016,310C1920,310,1824,310,1728,310C1632,310,1536,310,1440,310C1344,310,1248,310,1152,310C1056,310,960,310,864,310C768,310,672,310,576,310C480,310,384,310,288,310C192,310,96,310,48,310L0,310Z"/></svg>