<?xml version="1.0" standalone="no"?>
<svg xmlns:xlink="http://www.w3.org/1999/xlink" id="wave" style="transform:rotate(0deg); transition: 0.3s" viewBox="0 0 1440 600" version="1.1" xmlns="http://www.w3.org/2000/svg"><defs><linearGradient id="sw-gradient-0" x1="0" x2="0" y1="1" y2="0"><stop stop-color="rgba(255, 255, 255)" offset="0%"/><stop stop-color="rgba(255, 255, 255)" offset="100%"/></linearGradient></defs><path style="transform:translate(0, 0px); opacity:1" fill="url(#sw-gradient-0)" d="M0,186L48,160.2C96,134,192,83,288,93C384,103,480,176,576,217C672,258,768,269,864,248C960,227,1056,176,1152,175.7C1248,176,1344,227,1440,242.8C1536,258,1632,238,1728,201.5C1824,165,1920,114,2016,108.5C2112,103,2208,145,2304,149.8C2400,155,2496,124,2592,98.2C2688,72,2784,52,2880,36.2C2976,21,3072,10,3168,20.7C3264,31,3360,62,3456,62C3552,62,3648,31,3744,56.8C3840,83,3936,165,4032,206.7C4128,248,4224,248,4320,232.5C4416,217,4512,186,4608,170.5C4704,155,4600,155,4896,155C4992,155,5088,155,5184,160.2C5280,165,5376,176,5472,160.2C5568,145,5664,103,5760,118.8C5856,134,5952,207,6048,222.2C6144,238,6240,196,6336,180.8C6432,165,6528,176,6624,170.5C6720,165,6816,145,6864,134.3L6912,124L6912,600L6864,600C6816,600,6720,600,6624,600C6528,600,6432,600,6336,600C6240,600,6144,600,6048,600C5952,600,5856,600,5760,600C5664,600,5568,600,5472,600C5376,600,5280,600,5184,600C5088,600,4992,600,4896,600C4600,600,4704,600,4608,600C4512,600,4416,600,4320,600C4224,600,4128,600,4032,600C3936,600,3840,600,3744,600C3648,600,3552,600,3456,600C3360,600,3264,600,3168,600C3072,600,2976,600,2880,600C2784,600,2688,600,2592,600C2496,600,2400,600,2304,600C2208,600,2112,600,2016,600C1920,600,1824,600,1728,600C1632,600,1536,600,1440,600C1344,600,1248,600,1152,600C1056,600,960,600,864,600C768,600,672,600,576,600C480,600,384,600,288,600C192,600,96,600,48,600L0,600Z"/></svg>